<?xml version="1.0" standalone="no"?>
<!DOCTYPE svg PUBLIC "-//W3C//DTD SVG 20010904//EN"
 "http://www.w3.org/TR/2001/REC-SVG-20010904/DTD/svg10.dtd">
<svg version="1.0" xmlns="http://www.w3.org/2000/svg"
 width="3125.000000pt" height="3125.000000pt" viewBox="0 0 3125.000000 3125.000000"
 preserveAspectRatio="xMidYMid meet">

<g transform="translate(0.000000,3125.000000) scale(0.100000,-0.100000)"
fill="#000000" stroke="none">
<path d="M0 19300 l0 -11950 3970 0 c2640 0 3970 -3 3970 -10 0 -7 -1330 -10
-3970 -10 l-3970 0 0 -3665 0 -3665 15625 0 15625 0 0 3665 0 3665 -1740 0
c-1733 0 -1740 0 -1740 -20 0 -20 -7 -20 -2386 -20 l-2385 0 7 148 c17 394
-59 829 -212 1204 -37 92 -89 205 -100 216 -1 2 -33 -21 -71 -51 -224 -181
-619 -374 -1053 -515 -446 -145 -955 -264 -1600 -372 -397 -67 -641 -90 -955
-90 -712 0 -1299 134 -1812 414 l-82 44 -5 -26 c-24 -128 -35 -401 -25 -597 9
-173 19 -252 51 -418 11 -59 19 -109 17 -111 -2 -2 -89 -13 -194 -25 -1044
-115 -2242 -138 -3460 -65 -143 8 -260 16 -261 17 -1 1 8 58 19 127 29 178 31
670 4 840 -53 331 -123 567 -243 819 -59 125 -90 171 -196 296 -224 265 -586
427 -1046 467 -387 34 -818 -85 -1174 -324 -118 -78 -231 -175 -428 -363 -212
-203 -293 -272 -410 -351 -490 -326 -1184 -369 -1757 -108 -11 5 -18 -19 -45
-161 l-13 -70 -5 129 c-4 91 -9 131 -17 134 -14 4 -21 -469 -14 -910 l3 -228
-2526 0 -2526 0 0 4920 0 4920 -55 0 -55 0 0 85 0 85 55 0 55 0 0 75 0 75 -55
0 -55 0 0 90 0 90 2595 0 2595 0 0 1425 0 1425 -1771 0 -1770 0 7 23 c17 57
75 168 118 224 83 110 207 190 356 230 67 18 293 25 355 11 l31 -7 11 122 c50
515 375 853 940 979 83 19 129 22 298 22 181 0 210 -2 310 -26 267 -63 498
-180 711 -360 l81 -68 124 0 c68 0 141 -4 161 -9 l38 -9 0 129 0 129 -80 0
-80 0 0 180 0 180 80 0 80 0 0 140 0 140 -80 0 -80 0 0 185 0 185 4020 0 4020
0 0 -185 0 -185 -135 0 -135 0 0 -140 0 -140 135 0 135 0 0 -180 0 -180 -75 0
-75 0 0 -843 0 -844 -57 -39 c-260 -178 -533 -608 -726 -1144 -25 -69 -47
-134 -49 -145 -3 -17 78 -75 487 -347 412 -276 491 -332 493 -353 10 -76 -54
-463 -113 -693 l-35 -132 0 -405 c0 -379 1 -405 18 -405 9 0 59 5 109 10 51 5
134 12 185 15 128 8 918 96 1348 151 195 25 376 48 402 51 l47 6 20 61 c66
201 151 770 233 1551 l13 120 185 22 c102 13 277 34 389 48 112 14 206 23 209
21 27 -28 38 -804 14 -1021 -56 -506 -180 -958 -355 -1290 -46 -87 -61 -105
-108 -137 -315 -214 -865 -322 -1564 -304 -137 3 -304 10 -370 16 -264 21
-467 42 -611 60 -83 11 -154 20 -157 20 -4 0 -7 -126 -7 -279 l0 -280 23 -3
c12 -2 -75 -7 -193 -11 -925 -33 -1722 -151 -2280 -337 -150 -50 -356 -132
-398 -158 -9 -6 -1 -20 29 -53 130 -139 233 -352 279 -577 37 -182 45 -354 31
-639 -16 -316 -26 -1147 -16 -1269 l7 -89 32 90 c18 50 68 193 111 318 42 125
79 226 81 225 2 -2 28 -116 58 -254 77 -351 157 -694 308 -1324 130 -545 504
-2050 510 -2056 5 -4 1299 244 1306 251 3 3 -2 78 -11 168 -28 273 -182 1787
-267 2612 -43 428 -78 780 -76 782 3 3 390 -27 422 -33 l21 -4 -23 -49 c-53
-109 -68 -268 -39 -403 7 -37 30 -108 49 -157 l36 -88 1 -1339 1 -1339 25 53
c40 85 111 294 148 437 61 230 101 487 125 785 21 253 12 855 -16 1072 l-6 46
67 -24 c154 -56 354 -86 575 -85 173 0 239 7 450 52 336 71 594 144 1260 359
410 132 709 225 855 264 180 48 728 155 1650 322 335 61 675 126 730 142 145
39 239 211 275 502 28 229 -8 497 -90 665 -61 127 -75 137 -415 304 -616 303
-1240 459 -1745 437 -85 -4 -190 -12 -233 -20 l-77 -12 5 685 c14 1822 27
3016 33 3022 4 3 41 13 83 23 88 20 76 -2 109 196 54 322 75 570 66 779 -6
132 -32 321 -55 397 l-9 32 161 6 c89 3 340 8 557 11 544 8 2071 33 2794 46
495 9 600 8 607 -3 5 -7 9 -100 9 -205 l0 -193 2075 0 2075 0 0 -6220 0 -6220
1740 0 1740 0 0 11950 0 11950 -15625 0 -15625 0 0 -11950z m17075 6975 c391
-68 701 -269 859 -557 76 -138 123 -312 128 -471 l2 -79 42 7 c93 14 277 6
357 -14 211 -55 371 -201 456 -418 l21 -53 -2720 0 -2721 0 12 23 c112 212
341 386 598 454 131 35 386 43 545 18 59 -9 110 -14 113 -11 3 3 20 41 38 86
55 138 121 236 230 345 79 79 117 110 180 142 130 67 207 85 372 88 l142 2 60
56 c73 67 246 184 350 236 162 82 362 141 536 161 98 11 293 3 400 -15z m8927
-166 c115 -25 209 -102 263 -214 54 -115 69 -211 70 -433 0 -158 3 -201 13
-197 41 16 158 27 236 22 205 -11 357 -118 457 -321 21 -44 39 -86 39 -93 0
-11 -378 -13 -2080 -13 l-2080 0 10 24 c21 55 75 155 115 212 97 135 233 228
385 260 141 30 350 1 507 -71 l51 -23 6 33 c10 51 88 204 140 272 116 153 299
266 496 308 89 19 254 19 341 1 148 -32 301 -112 400 -210 l45 -46 18 58 c40
127 135 277 217 344 107 87 220 115 351 87z m-8557 -2063 c304 -79 538 -282
633 -548 48 -136 39 -388 -20 -518 -11 -25 -21 -46 -23 -48 -1 -1 -132 61
-291 139 -622 304 -788 376 -1104 482 -267 90 -521 147 -656 147 -108 0 -193
-47 -210 -116 -12 -48 6 -113 50 -177 37 -55 134 -148 180 -174 16 -9 16 -12
-1 -51 l-18 -43 -73 46 c-41 25 -117 77 -170 117 -301 226 -369 404 -207 546
60 53 119 73 235 79 144 7 345 -32 559 -111 l64 -23 68 56 c75 64 229 147 332
181 125 41 201 50 382 46 144 -3 185 -8 270 -30z m-883 -735 c193 -67 377 -79
498 -32 30 11 56 21 56 21 1 0 10 -35 19 -77 58 -259 193 -479 366 -593 l44
-30 24 33 c45 60 131 135 183 161 133 66 281 -2 323 -149 32 -110 -16 -244
-128 -358 -58 -58 -166 -127 -199 -127 -27 0 -37 -239 -17 -404 33 -288 43
-355 70 -491 32 -161 91 -397 141 -561 l31 -102 -34 -31 c-60 -56 -239 -171
-343 -221 -117 -56 -274 -112 -396 -142 -121 -29 -308 -36 -384 -14 -71 21
-141 81 -156 134 -21 79 16 139 198 323 63 64 123 130 133 146 38 59 52 149
46 283 -6 136 -44 326 -68 341 -8 5 -32 9 -54 9 -22 0 -80 7 -130 15 -443 73
-677 299 -740 715 -34 224 -13 514 58 790 32 125 43 132 210 140 5 0 7 10 5
23 -3 19 -10 22 -57 25 -29 2 -66 -1 -82 -7 -23 -8 -29 -7 -29 4 0 7 23 83 50
169 l50 155 113 -59 c61 -32 151 -72 199 -89z m-689 -7878 c-7 -2 -21 -2 -30
0 -10 3 -4 5 12 5 17 0 24 -2 18 -5z m7781 -8256 c-66 -67 -129 -147 -179
-225 -38 -59 -57 -73 -70 -52 -11 18 111 191 210 298 53 57 60 62 74 48 14
-15 10 -21 -35 -69z m1556 13 c0 -18 -7 -20 -87 -20 -75 0 -208 -21 -290 -46
-19 -5 -23 -2 -23 14 0 22 19 30 125 51 73 15 101 18 193 20 76 1 82 0 82 -19z
m-783 -226 c2 -6 -45 -40 -104 -75 l-108 -64 1953 -3 c1290 -1 1952 -5 1952
-12 0 -7 -667 -10 -1971 -10 l-1970 0 -60 -40 c-33 -23 -64 -38 -69 -35 -19
12 -10 31 23 50 l32 20 -592 3 c-384 1 -593 6 -593 12 0 7 214 10 611 10 l611
0 31 22 c71 51 223 138 236 135 8 -1 16 -7 18 -13z m-16407 -49 c0 -13 -89
-15 -745 -15 -656 0 -745 2 -745 15 0 13 89 15 745 15 656 0 745 -2 745 -15z
m9355 -365 c4 -6 -7 -10 -24 -10 -17 0 -31 5 -31 10 0 6 11 10 24 10 14 0 28
-4 31 -10z m-10895 -10 c0 -7 -542 -10 -1605 -10 -1063 0 -1605 3 -1605 10 0
7 542 10 1605 10 1063 0 1605 -3 1605 -10z m16755 -30 c3 -6 -11 -61 -33 -123
-22 -61 -49 -154 -62 -204 -18 -77 -26 -93 -41 -93 -11 0 -19 3 -19 6 0 32 99
362 122 407 10 19 24 22 33 7z m481 -42 c4 -7 -18 -33 -57 -67 -35 -30 -108
-98 -161 -149 -66 -64 -102 -93 -112 -89 -9 4 -16 10 -16 14 0 20 306 303 327
303 6 0 15 -5 19 -12z m-10466 -123 c0 -12 -20 -15 -120 -15 -110 0 -132 5
-113 23 3 4 57 7 120 7 94 0 113 -3 113 -15z m3614 -402 l940 -6 70 -65 c208
-192 333 -271 575 -366 604 -238 1146 -420 1661 -560 273 -74 353 -87 560 -93
399 -12 757 87 1112 308 206 127 466 363 618 561 l75 98 62 0 c33 0 256 -9
495 -20 2840 -131 4535 -320 4696 -525 27 -35 27 -45 0 -80 -226 -288 -3487
-540 -8208 -635 -2312 -46 -5518 -46 -7780 0 -1089 22 -2657 69 -3170 95 -58
3 -208 10 -335 15 -2676 118 -4462 310 -4694 506 -15 12 -40 24 -56 26 -26 3
-30 7 -30 33 0 26 4 30 30 33 16 2 41 14 56 26 232 196 2004 387 4684 506 127
5 280 12 340 15 l110 5 65 -55 c81 -70 212 -160 310 -213 118 -64 1188 -472
1445 -551 147 -46 305 -65 520 -65 215 0 321 14 520 70 450 127 897 449 1195
861 l45 62 225 2 c124 1 558 5 965 8 1141 11 1876 12 2899 4z m-15460 -679
c21 -8 21 -50 0 -58 -9 -3 -71 -6 -139 -6 -68 0 -130 3 -139 6 -19 7 -21 50
-3 57 18 8 262 8 281 1z m850 0 c25 -10 20 -53 -6 -59 -13 -3 -117 -4 -233 -3
-193 3 -210 4 -213 21 -9 46 -5 47 222 47 118 0 221 -3 230 -6z m837 -10 c9
-11 10 -20 2 -32 -9 -15 -36 -17 -233 -17 -197 0 -224 2 -233 17 -8 12 -7 21
2 32 20 24 442 24 462 0z"/>
<path d="M16752 23111 c-8 -5 -12 -17 -10 -27 3 -16 11 -19 58 -16 68 4 134
-27 168 -78 14 -21 31 -35 44 -35 32 0 31 16 -1 66 -38 61 -112 99 -190 99
-31 0 -62 -4 -69 -9z"/>
<path d="M16707 22860 c-31 -25 -41 -72 -23 -114 30 -72 106 -39 106 46 -1 70
-40 102 -83 68z"/>
<path d="M16123 22833 c-22 -34 -21 -97 2 -123 40 -44 95 -8 95 63 0 80 -60
117 -97 60z"/>
<path d="M16704 22285 c-56 -53 -126 -81 -243 -98 -75 -11 -86 -15 -86 -32 0
-26 52 -31 144 -15 88 15 167 52 219 103 76 74 43 115 -34 42z"/>
<path d="M22123 18736 c-187 -36 -345 -118 -481 -250 -233 -225 -343 -507
-329 -840 17 -401 232 -741 576 -911 143 -71 322 -102 485 -85 603 62 1007
698 846 1329 -95 372 -364 649 -728 747 -80 21 -279 27 -369 10z m295 -191
c45 -9 114 -34 167 -60 523 -256 625 -1030 190 -1444 -198 -188 -445 -250
-695 -175 -252 75 -450 294 -533 589 -28 103 -35 316 -12 426 35 173 106 315
220 437 180 194 418 275 663 227z"/>
<path d="M22139 18485 c-269 -68 -483 -303 -543 -597 -20 -97 -21 -284 -1
-376 69 -330 308 -571 608 -613 300 -42 603 155 725 471 46 121 56 179 56 330
-1 169 -19 252 -84 386 -90 187 -236 317 -430 386 -73 26 -253 33 -331 13z
m199 -146 c2 -65 -1 -89 -12 -98 -27 -23 -46 13 -46 89 0 84 6 102 34 98 19
-3 21 -10 24 -89z m-10 -357 c2 -180 3 -182 28 -207 19 -19 25 -34 22 -60 -2
-33 6 -44 140 -178 78 -78 142 -146 142 -150 0 -24 -41 9 -165 133 -118 119
-144 140 -164 137 -38 -7 -66 8 -81 42 -11 26 -10 35 4 56 10 15 24 29 32 32
11 4 14 39 14 195 0 147 3 189 13 186 9 -4 13 -52 15 -186z m-501 -248 c11
-28 -14 -37 -99 -35 -86 2 -105 9 -95 35 5 13 24 16 97 16 73 0 92 -3 97 -16z
m1130 0 c11 -28 -25 -44 -97 -44 -72 0 -108 16 -97 44 5 13 22 16 97 16 75 0
92 -3 97 -16z m-592 -684 c0 -88 -1 -95 -20 -95 -18 0 -20 8 -23 84 -3 96 1
114 25 109 16 -3 18 -16 18 -98z"/>
<path d="M7870 17445 l0 -75 40 0 40 0 0 75 0 75 -40 0 -40 0 0 -75z"/>
<path d="M7920 13449 c0 -3334 2 -3750 15 -3739 13 11 15 440 15 3751 0 3317
-2 3739 -15 3739 -13 0 -15 -423 -15 -3751z"/>
<path d="M8790 16874 c-14 -65 -8 -109 24 -179 50 -111 129 -163 312 -209 101
-25 288 -56 341 -56 l30 0 -19 68 c-28 98 -22 221 15 286 15 27 26 50 24 52
-1 2 -71 10 -154 19 -84 8 -243 29 -355 45 -112 17 -204 30 -205 30 -1 0 -7
-25 -13 -56z"/>
<path d="M13115 16325 c-48 -108 -67 -193 -72 -332 -5 -109 -3 -133 8 -133 8
0 189 -20 404 -45 214 -24 391 -42 394 -40 2 3 7 94 10 202 l6 197 72 51 c40
27 73 53 73 56 0 3 -35 9 -77 13 -136 12 -737 76 -766 82 -25 5 -29 2 -52 -51z"/>
<path d="M14864 8650 l-381 -6 -34 -39 c-21 -24 -62 -51 -106 -72 -40 -19 -73
-35 -73 -37 0 -2 39 -29 86 -61 133 -88 270 -145 436 -182 146 -32 691 -18
714 18 2 5 -7 94 -22 199 l-27 190 -106 -2 c-58 -1 -278 -4 -487 -8z"/>
</g>
</svg>
