<svg fill="none" height="80" viewBox="0 0 80 80" width="80" xmlns="http://www.w3.org/2000/svg" xmlns:xlink="http://www.w3.org/1999/xlink"><linearGradient id="a"><stop offset=".00132565" stop-color="#ffcb4b"/><stop offset="1" stop-color="#ffd748"/></linearGradient><linearGradient id="b" gradientUnits="userSpaceOnUse" x1="53.6682" x2="34.6259" xlink:href="#a" y1="40.7376" y2="39.9734"/><linearGradient id="c" gradientUnits="userSpaceOnUse" x1="34.4681" x2="33.1376" xlink:href="#a" y1="30.8216" y2="16.5266"/><linearGradient id="d" gradientUnits="userSpaceOnUse" x1="30.6733" x2="45.0184" xlink:href="#a" y1="52.0289" y2="31.5192"/><linearGradient id="e" gradientUnits="userSpaceOnUse" x1="20.2921" x2="57.0324" y1="60.2004" y2="57.4488"><stop offset=".3118" stop-color="#ffbc47" stop-opacity="0"/><stop offset="1" stop-color="#ff8900"/></linearGradient><linearGradient id="f"><stop offset="0" stop-color="#ffbc47" stop-opacity="0"/><stop offset="1" stop-color="#ffa754"/></linearGradient><linearGradient id="g" gradientUnits="userSpaceOnUse" x1="19.5928" x2="67.839" xlink:href="#f" y1="27.5346" y2="27.5349"/><linearGradient id="h"><stop offset="0" stop-color="#ffbc47" stop-opacity="0"/><stop offset="1" stop-color="#c86f34"/></linearGradient><linearGradient id="i" gradientUnits="userSpaceOnUse" x1="11.8135" x2="107.129" xlink:href="#h" y1="27.462" y2="24.4262"/><linearGradient id="j" gradientUnits="userSpaceOnUse" x1="26.9583" x2="42.7212" xlink:href="#h" y1="15.0065" y2="23.5484"/><linearGradient id="k" gradientUnits="userSpaceOnUse" x1="45.0154" x2="58.1597" y1="27.1342" y2="28.8604"><stop offset="0" stop-color="#643800" stop-opacity="0"/><stop offset="1" stop-color="#643800"/></linearGradient><linearGradient id="l" gradientUnits="userSpaceOnUse" x1="21.6872" x2="24.5382" xlink:href="#f" y1="56.1527" y2="8.94598"/><linearGradient id="m"><stop offset=".00132565" stop-color="#ffbc47"/><stop offset="1" stop-color="#ffd748"/></linearGradient><linearGradient id="n" gradientUnits="userSpaceOnUse" x1="65.3275" x2="46.6754" xlink:href="#m" y1="40.9925" y2="40.9924"/><linearGradient id="o" gradientUnits="userSpaceOnUse" x1="65.3275" x2="46.6652" xlink:href="#m" y1="21.28" y2="21.2799"/><linearGradient id="p" gradientUnits="userSpaceOnUse" x1="65.3278" x2="46.6758" xlink:href="#m" y1="12.4459" y2="12.4458"/><linearGradient id="q" gradientUnits="userSpaceOnUse" x1="44.1611" x2="53.8761" xlink:href="#a" y1="40.8994" y2="41.1209"/><linearGradient id="r" gradientUnits="userSpaceOnUse" x1="61.1504" x2="51.2474" xlink:href="#a" y1="21.1482" y2="21.1481"/><linearGradient id="s" gradientUnits="userSpaceOnUse" x1="61.1505" x2="51.2475" xlink:href="#a" y1="12.4456" y2="12.4455"/><linearGradient id="t"><stop offset=".00132565" stop-color="#fba23b" stop-opacity="0"/><stop offset="1" stop-color="#fba23b"/></linearGradient><linearGradient id="u" gradientUnits="userSpaceOnUse" x1="49.0618" x2="43.7779" xlink:href="#t" y1="41.1278" y2="41.1278"/><linearGradient id="v" gradientUnits="userSpaceOnUse" x1="48.1124" x2="42.0358" y1="40.9756" y2="40.9755"><stop offset=".00132565" stop-color="#ffbc47"/><stop offset="1" stop-color="#e89043"/></linearGradient><linearGradient id="w"><stop offset="0" stop-color="#fbe07a"/><stop offset="1" stop-color="#ffd748" stop-opacity="0"/></linearGradient><radialGradient id="x" cx="0" cy="0" gradientTransform="matrix(7.14490572 -1.99399291 .92592787 3.31779881 28.0049 18.932)" gradientUnits="userSpaceOnUse" r="1" xlink:href="#w"/><radialGradient id="y" cx="0" cy="0" gradientTransform="matrix(6.34304785 -.22451463 .14735606 4.16314295 55.8453 40.9465)" gradientUnits="userSpaceOnUse" r="1"><stop offset="0" stop-color="#fbe07a"/><stop offset="1" stop-color="#ffd748"/></radialGradient><radialGradient id="z" cx="0" cy="0" gradientTransform="matrix(6.81627693 .00647236 -.0034891 3.67449834 55.5383 20.494)" gradientUnits="userSpaceOnUse" r="1" xlink:href="#w"/><radialGradient id="A" cx="0" cy="0" gradientTransform="matrix(6.24087723 .00587746 -.00367853 3.90598827 53.1803 12.2328)" gradientUnits="userSpaceOnUse" r="1" xlink:href="#w"/><linearGradient id="B" gradientUnits="userSpaceOnUse" x1="49.695" x2="42.0368" xlink:href="#t" y1="21.3858" y2="21.3858"/><linearGradient id="C"><stop offset=".00132565" stop-color="#ffbc47"/><stop offset="1" stop-color="#fba23b"/></linearGradient><linearGradient id="D" gradientUnits="userSpaceOnUse" x1="48.0673" x2="43.9421" xlink:href="#C" y1="21.6535" y2="21.6534"/><linearGradient id="E" gradientUnits="userSpaceOnUse" x1="49.4199" x2="40.464" xlink:href="#t" y1="12.3962" y2="14.0409"/><linearGradient id="F" gradientUnits="userSpaceOnUse" x1="48.4938" x2="44.7083" xlink:href="#C" y1="12.6885" y2="12.6885"/><linearGradient id="G" gradientUnits="userSpaceOnUse" x1="54.5279" x2="56.9353" xlink:href="#h" y1="42.1672" y2="30.5164"/><linearGradient id="H" gradientUnits="userSpaceOnUse" x1="56.3569" x2="53.7302" xlink:href="#h" y1="19.1477" y2="28.6243"/><linearGradient id="I" gradientUnits="userSpaceOnUse" x1="65.3276" x2="46.6756" xlink:href="#m" y1="30.329" y2="30.3289"/><linearGradient id="J" gradientUnits="userSpaceOnUse" x1="45.9232" x2="60.211" y1="30.8494" y2="30.3276"><stop offset=".00132565" stop-color="#ffcb4b"/><stop offset=".7382" stop-color="#ffd748"/><stop offset="1" stop-color="#ffcb4b"/></linearGradient><linearGradient id="K" gradientUnits="userSpaceOnUse" x1="51.4987" x2="40.8241" xlink:href="#t" y1="30.5219" y2="30.5219"/><radialGradient id="L" cx="0" cy="0" gradientTransform="matrix(6.97150374 .33316285 -.21867771 4.57587776 57.6969 30.5013)" gradientUnits="userSpaceOnUse" r="1" xlink:href="#w"/><linearGradient id="M" gradientUnits="userSpaceOnUse" x1="46.5367" x2="43.1664" xlink:href="#C" y1="30.535" y2="30.535"/><linearGradient id="N" gradientUnits="userSpaceOnUse" x1="55.4132" x2="57.4405" xlink:href="#h" y1="31.5627" y2="18.6769"/><linearGradient id="O" gradientUnits="userSpaceOnUse" x1="54.0083" x2="59.2025" xlink:href="#h" y1="21.5936" y2="10.3242"/><linearGradient id="P" gradientUnits="userSpaceOnUse" x1="52.9739" x2="53.7341" xlink:href="#h" y1="11.7071" y2="4.58335"/><linearGradient id="Q" gradientUnits="userSpaceOnUse" x1="53.1532" x2="53.1532" xlink:href="#h" y1="12.7882" y2="17.9412"/><linearGradient id="R" gradientUnits="userSpaceOnUse" x1="17.7506" x2="11.0991" y1="31.6938" y2="51.9708"><stop offset="0" stop-color="#c86f34" stop-opacity="0"/><stop offset="1" stop-color="#c86f34"/></linearGradient><linearGradient id="S" gradientUnits="userSpaceOnUse" x1="18.9082" x2="18.528" xlink:href="#h" y1="19.3892" y2="4.85665"/><radialGradient id="T" cx="0" cy="0" gradientTransform="matrix(1.26875408 -6.5708807 3.85467121 .74428833 41.877 65.7972)" gradientUnits="userSpaceOnUse" r="1" xlink:href="#w"/><linearGradient id="U" gradientUnits="userSpaceOnUse" x1="39.2489" x2="44.1271" xlink:href="#h" y1="43.4792" y2="87.5827"/><path d="m39.7927 72c-2.4776 0-3.4196-1.9831-3.2278-5.825.1273-2.5326.9803-9.5933-2.5942-13.1711-3.3337-3.3354-4.3033-3.0392-8.1018-7.3446s-6.9619-3.4198-11.3925-3.0391c-5.56588.4773-3.6697-30.4236.2531-29.8879 2.7845.3807 9.1143 1.1404 10.1269 1.1404 1.0125 0 7.956-5.38444 14.0496-5.4489 9.8722-.10284 15.3168 1.647 15.3168 1.647l2.8934 6.5648.968 20.0214-4.6208 9.6331s-6.2025-1.013-7.9744 1.7729c-1.772 2.7858 1.393 6.2056 1.393 14.1841s-5.8236 9.7529-7.0893 9.7529z" fill="url(#b)"/><path d="m54.568 10.1304-.3758 1.3706c-1.1123.1182-2.5436-.3883-4.4981-.3729-9.3352.0721-18.2593 2.7536-22.0885 5.7866-2.5083 1.9862-3.6083 4.6293-5.3803 3.8695-2.1861-.9378-8.3886-2.396-10.6699.4927.6382-4.9424 1.7766-8.7367 3.1742-8.5464 2.7844.3807 9.1143 1.1405 10.1268 1.1405s7.7627-5.24024 14.0512-5.44592c8.1355-.26554 15.3613 1.13584 15.3613 1.13584z" fill="url(#c)"/><path d="m18.4298 40.6677c3.6712-1.0131 6.0031.663 7.8793 2.9439 1.864 2.2656 3.481 4.2748 8.1647 7.3139s4.0824 11.3983 3.7019 14.1841c-.3805 2.7859-.1273 6.8903 1.617 6.8903-2.4777 0-3.4196-1.9832-3.2279-5.825.1274-2.5326.9804-9.5933-2.5942-13.1711-3.3337-3.3354-4.3032-3.0392-8.1018-7.3446-3.797-4.3054-6.9619-3.4198-11.3925-3.0391 0-.964.2823-.9394 3.9535-1.9524z" fill="url(#d)"/><path d="m45.4889 48.0643c-1.772 2.7859 1.3929 6.2057 1.3929 14.1842s-5.822 9.7513-7.0892 9.7513c-.3329 0-.629-.0368-.8944-.1074 5.1639-.3239 8.2736-6.8396 6.494-13.558-1.4436-5.452-2.1631-9.8219.1948-12.3867 1.525-1.6593 4.558-1.3768 7.8778.3438-.0015 0-6.204-1.0146-7.9759 1.7728z" fill="url(#e)"/><path d="m45.8372 45.2201c-3.0376-1.0131-10.7098-3.3968-16.5211-8.6692-14.7277-13.3615 10.4168-15.0361 15.6098-26.462.9926-2.18415 6.7947 11.4551 6.7947 11.4551l1.8763 3.1589-5.4217 14.4435z" fill="url(#g)"/><path d="m46.2822 44.0643c-3.0376-1.0131-15.4472-8.967-15.4472-12.8948 0-11.3354 8.5942-5.7406 13.2396-19.1159.6428-1.8526 2.9148-3.41053 2.9148-3.41053 1.8824 1.53643 4.7313 12.90093 4.7313 12.90093l1.8763 3.1589-5.4217 14.4435z" fill="url(#i)"/><path d="m53.2947 9.32175 5.8144 6.65075 1.281 27.782-14.5544 1.4674c-3.3413-1.7989-3.7279-4.2594-2.4868-8.2103.5216-1.6623-1.6001-2.1381-1.7367-6.9808-.0951-3.3553 2.1018-3.3722 2.1018-4.3699s-1.0938-.9086-1.4574-3.7989c-.5186-4.1351 2.9424-4.2149 2.9424-5.099s-1.9222-1.409-1.8041-4.7797c.1503-4.27474-7.7842-3.41059-13.1491.4789-2.203 1.5978-4.1253 1.7621-5.6257 1.3998.0936.0046.1734.0077.2332.0077 1.0125 0 7.8134-5.44587 14.0512-5.44587 7.2933 0 12.339.42824 14.3902.89792z" fill="url(#j)"/><path d="m54.631 43.3892c-4.4935 0-6.9619-4.3929-5.2529-7.7682s-3.1649-7.8434-2.6586-10.043c.5062-2.198 1.393-7.7666 2.0879-8.6876.695-.9209-1.1398-3.01-1.1398-3.01l5.6962-.6968 5.3158 2.3453-.1902 16.0814.5691 10.0675z" fill="url(#k)"/><path d="m25.869 45.6578c-2.4669-2.7966-4.6669-3.4029-7.12-3.3798.7073-1.142 1.1997-2.3899 1.1491-3.6102-.1335-3.1987.5707-7.1419 1.1092-3.0406.4096 3.1235 2.5267 6.9838 5.0734 10.2685-.0706-.0782-.1396-.155-.2117-.2379z" fill="url(#l)"/><path d="m58.035 46.4175c-5.3127.2026-14.8642.5035-15.0775-5.0652-.1534-4.0384 2.7093-5.363 7.1368-5.5318 4.4276-.1689 6.6413-.2533 8.4746-.3224 1.8349-.0706 7.6017-.0353 7.6584 4.8412.0706 6.092-8.1923 6.0782-8.1923 6.0782z" fill="url(#n)"/><path d="m49.2966 26.2855c-1.4236.0414-5.6533-1.0254-6.0491-3.713-.3114-2.1136.7671-4.8442 4.4475-5.4889 4.6622-.8165 12.4311-1.2448 15.3337-.158 1.2964.485 2.427 1.8434 2.4868 3.9017.0599 2.0583-1.4681 4.8319-4.7895 4.9286-3.3214.0952-5.052.0445-6.9451.2686-2.2766.2686-3.3444.2287-4.4843.261z" fill="url(#o)"/><path d="m47.8148 16.8933c-1.6139 0-3.6083-1.4244-3.6083-3.7989s.6168-4.13201 4.0824-4.79663c3.4656-.66461 9.0192-.09516 11.1071.56946 1.6277.5188 2.2307 2.04147 2.2307 4.55867 0 2.5173-1.5664 2.9563-3.2754 2.9563-1.7091 0-3.7832-.3116-4.9676-.2502-3.306.1765-3.955.7613-5.5689.7613z" fill="url(#p)"/><path d="m57.5827 45.2918c-4.6393.1765-12.9804.4452-13.1476-3.957-.1212-3.1926 2.3825-4.2486 6.2486-4.396 3.866-.1473 14.0373-.3331 14.0711 3.5211.0429 4.8166-7.1721 4.8319-7.1721 4.8319z" fill="url(#q)"/><path d="m49.7246 25.1515c-1.2395.0353-4.7097-.2594-5.0427-2.8273-.2255-1.7376.6751-3.9693 3.8799-4.5019 4.0608-.6754 10.8233-1.0376 13.35-.152 1.1276.396 2.111 1.5058 2.1585 3.1926.0491 1.6869-1.5049 3.7544-4.3953 3.8389-2.8918.0828-4.429-.1842-6.0782.003-1.9806.221-2.8811.4175-3.8722.4467z" fill="url(#r)"/><path d="m48.5035 16.0272c-1.3961 0-3.1204-1.1465-3.1204-3.059s.5338-3.32773 3.5315-3.86188 7.8011-.07675 9.6083.45894c1.4068.4175 1.93 1.64394 1.93 3.67154 0 2.0261-1.3547 2.3806-2.8336 2.3806s-3.2723-.2517-4.2971-.201c-2.8611.1396-3.4226.6108-4.8187.6108z" fill="url(#s)"/><path d="m47.6535 41.3342c.1151 3.033 2.5329 4.4865 5.5874 5.1557-4.8755-.1135-10.1253-1.0253-10.2834-5.1373-.1534-4.0384 2.7093-5.363 7.1368-5.5319.4879-.0184.9466-.0368 1.3823-.0521-2.4868.7275-3.9443 2.3668-3.8231 5.5656z" fill="url(#u)"/><path d="m48.0692 45.94c-2.8366-.6201-5.012-1.9616-5.1117-4.5878-.1273-3.3569 1.8318-4.8381 5.0396-5.34-6.5078 2.6001-4.1728 9.0007.0721 9.9278z" fill="url(#v)"/><path d="m35.646 15.7502c-.5047-1.8112-4.0271-2.4114-7.8655-1.34s-6.54 3.4075-6.0353 5.2187 4.0271 2.4114 7.8655 1.34 6.5401-3.406 6.0353-5.2187z" fill="url(#x)"/><path d="m62.0147 40.5187c-.0368-2.33-3.1511-3.4352-6.5584-3.6424-2.786-.1688-5.8788 1.8035-5.799 4.0798.0797 2.2763.4848 4.2932 6.2746 4.0921 3.4119-.1182 6.1181-2.2517 6.0828-4.5295z" fill="url(#y)"/><path d="m62.6344 20.0369c-.0184-3.2264-3.5654-2.6079-6.9727-2.832-4.3201-.2855-7.1843 1.0607-7.1859 3.3385-.003 2.2778 1.64 3.937 7.4345 3.9462 3.4119.0062 6.7486-.3069 6.7241-4.4527z" fill="url(#z)"/><path d="m59.511 11.9035c-.0169-2.75059-3.2385-3.12511-6.2915-3.12664-3.0529-.00307-6.3666 1.61624-6.3682 3.55794-.0015 1.9417 1.4667 3.3569 6.6474 3.3645 3.0514.0046 6.0338-.2624 6.0123-3.7958z" fill="url(#A)"/><path d="m47.2088 21.9202c.4848 3.6731 3.3014 3.4582 6.5308 3.8389-3.7172.2778-5.2774.3177-5.2774.3177-.3468.0338-.7349.0353-1.1384-.0061-1.2073-.2656-2.5758-.8151-3.3889-1.8465-.2761-.393-.5001-.8565-.6474-1.406-.0153-.0798-.0307-.1612-.0399-.2441-.2623-2.1212.7671-4.8442 4.4475-5.4888.5308-.0937 1.1046-.1812 1.7029-.2625.2869-.0369.5998-.0752.9358-.1182.0905-.0107.181-.0215.2731-.0322-2.0297.9593-3.7541 2.5479-3.3981 5.2478z" fill="url(#B)"/><path d="m48.1093 26.0998c-.2501.0076-.5155-.0016-.787-.0292-1.2181-.2686-2.5989-.8258-3.4073-1.8741-.267-.3868-.4818-.8442-.626-1.3799-.0153-.0798-.0261-.1596-.0399-.2425-.3728-2.0891.6613-4.5511 3.8768-5.3661-5.4861 3.0269-3.1465 8.8887.9834 8.8918z" fill="url(#D)"/><path d="m51.3019 16.3336c-1.6215.2379-2.2874.5618-3.4871.5618-1.6139 0-3.6083-1.4244-3.6083-3.7989 0-.8627.0829-1.6424.3514-2.3193.273-.5587.6704-1.0821 1.215-1.52416.5983-.4175 1.4114-.74136 2.5145-.95318.7409-.14275 1.5786-.22717 2.4561-.26861-1.6937.98388-4.5625 1.51343-3.9611 4.80735.6658 3.6378 2.8366 3.1466 4.5195 3.495z" fill="url(#E)"/><path d="m47.7427 16.8919c-1.6001-.0414-3.5362-1.4581-3.5362-3.7973 0-2.175.5201-3.83272 3.2724-4.60632-4.2972 2.76282-2.918 7.42442.2638 8.40362z" fill="url(#F)"/><path d="m66.2275 40.3396c.0061.5464-.0553 1.0422-.1703 1.495.428-1.9033-1.2672-3.7943-5.7607-4.7122-2.9778-.6078-10.8862-1.3676-16.3585.8059 1.1813-1.4275 3.3551-1.9985 6.1565-2.1059 4.4275-.1689 6.6413-.2533 8.4746-.3224 1.8348-.0721 7.6016-.0368 7.6584 4.8396z" fill="url(#G)"/><path d="m65.5156 20.958c-.0062 2.0445-1.5388 4.7045-4.7911 4.7982-3.3214.0951-5.052.0445-6.9451.2686-2.2751.2686-3.3444.2287-4.4827.2609-.8607.0246-2.9839-.2348-4.4276-1.1328 1.6232-.5633 4.268-1.4106 7.9898-1.1726 8.918.574 11.4554-.505 12.6567-3.0223z" fill="url(#H)"/><path d="m47.3852 35.4995c-1.8978.0384-4.9123-1.0791-4.9906-5.0223-.0782-3.9432 3.369-4.881 4.8878-4.9117s6.8284-.3929 13.3777-.5234c6.5492-.1305 7.4267 3.386 7.4636 5.2279.0368 1.8435-1.1307 5.1758-5.0704 5.2556-11.3909.2287-15.6681-.0261-15.6681-.0261z" fill="url(#I)"/><path d="m48.4039 34.3559c-1.6507.0322-4.268-.8243-4.3278-3.865-.0599-3.0406 2.9379-3.7728 4.2572-3.7989 1.3209-.0261 5.9371-.3162 11.6303-.4298 5.6932-.1135 6.4495 2.5971 6.4771 4.02.0277 1.4213-.1672 3.9938-3.5929 4.0629-9.9013.1965-14.4439.0108-14.4439.0108z" fill="url(#J)"/><path d="m46.4678 30.858c.1902 4.0476 3.0145 4.0584 6.2025 4.7583-3.728-.023-5.2851-.1151-5.2851-.1151-1.8978.0383-4.9123-1.0791-4.9906-5.0223-.0782-3.9432 3.369-4.881 4.8878-4.9117.5477-.0107 1.5893-.0645 3.0008-.1351-2.1049.8673-3.9551 2.4482-3.8154 5.4259z" fill="url(#K)"/><path d="m64.787 30.439c.1319-3.2233-3.4472-3.8296-6.8576-3.9923s-7.2012 1.561-7.3102 3.8357c-.1089 2.2748 1.4544 4.0092 7.2412 4.2901 3.4119.1643 6.7579.0077 6.9266-4.1335z" fill="url(#L)"/><path d="m47.0291 35.4936c-1.8962-.1013-4.5625-1.3108-4.6362-5.0146-.0751-3.7482 3.0361-4.7812 4.6485-4.8994-6.2394 2.5188-4.1944 9.5426-.0123 9.914z" fill="url(#M)"/><path d="m68.113 30.6695c-.8223-5.8327-16.2358-4.7644-24.5647-3.5119 1.1246-1.2049 2.7968-1.5702 3.7341-1.5901 1.5188-.0307 6.8285-.393 13.3777-.5234 6.5493-.1305 7.4268 3.386 7.4636 5.2279.0015.1258-.0015.2594-.0107.3975z" fill="url(#N)"/><path d="m60.3917 17.6807c-2.9855-.132-10.8847-1.1143-16.6439 1.9724.6428-1.1942 1.887-2.2087 3.9473-2.5695 4.6623-.8165 12.4312-1.2448 15.3337-.158 1.2964.485 2.4271 1.8434 2.4869 3.9017-.1918-1.7897-1.8962-3.0038-5.124-3.1466z" fill="url(#O)"/><path d="m61.3979 11.1988c-1.9561-1.48883-5.3373-2.36834-10.2159-1.54409-3.013.50959-5.078.68299-6.4357.71989.5431-.98236 1.5909-1.70377 3.5424-2.07829 3.4656-.66462 9.0192-.09517 11.1071.56945 1.0724.34382 1.6983 1.12356 2.0021 2.33304z" fill="url(#P)"/><path d="m44.8477 15.2312c3.6144 1.317 5.3863-.637 9.2539-.637 4.0163 0 5.9309 1.6224 7.3577.0799-.448 1.4228-1.7305 1.7098-3.1066 1.7098-1.7091 0-3.7832-.3115-4.9691-.2501-3.3076.1734-3.955.7597-5.5689.7597-1.0448 0-2.2475-.597-2.967-1.6623z" fill="url(#Q)"/><path d="m14.7295 12.7305c2.7845.3807 9.1143 1.1405 10.1268 1.1405-9.1802 6.5648-5.0979 20.5279-1.7105 27.59.4756.9916.7686 1.8051.9266 2.4958-3.0545-2.33-5.8803-1.6577-9.596-1.3384-5.56588.4773-3.6697-30.4236.2531-29.8879z" fill="url(#R)"/><path d="m24.8563 13.8695c-.7871.6707-1.7367 1.8004-2.5912 2.8918 0 0-4.6086-2.3592-9.55-1.2495.5692-1.805 1.2534-2.8856 2.0143-2.7812 2.7845.3791 9.1143 1.1389 10.1269 1.1389z" fill="url(#S)"/><path d="m42.7459 60.3856c-1.8042-.3899-3.2662 2.1028-4.0916 5.0114-.675 2.3792.2424 5.4075 2.0144 5.7498 1.7719.3423 3.4073.3577 4.3845-4.6845.5738-2.9716-.5446-5.6961-2.3073-6.0767z" fill="url(#T)"/><path d="m53.4634 46.2921s-6.2026-1.013-7.9745 1.7728c-1.7719 2.7859 1.393 6.2057 1.393 14.1842s-5.8236 9.7513-7.0893 9.7513c-2.4776 0-3.4195-1.9831-3.2278-5.825.1274-2.5326.9803-9.5932-2.5942-13.1711-3.3337-3.3354-4.3033-3.0391-8.1018-7.3446-3.7985-4.3054 23.5414-1.2003 27.5946.6324z" fill="url(#U)"/><g fill="#804b24"><path d="m47.7425 16.8919c-1.0017.02-2.0051-.4451-2.7-1.2003-.7165-.749-1.0402-1.8296-.9972-2.8457.0322-.9931.1825-2.0737.833-2.90559.6413-.8396 1.6431-1.23561 2.6019-1.45203-.9281.33461-1.8471.8089-2.3963 1.60402-.5538.7889-.6996 1.7866-.7057 2.7597-.0629.9686.2301 1.9325.856 2.6708.6168.7322 1.5158 1.2648 2.5083 1.3691z"/><path d="m46.1501 25.7253c-.6734-.2179-1.3469-.5173-1.8931-1.0054-.5722-.4712-.9189-1.1696-1.1138-1.8664l-.003-.0108c-.1212-.6277-.1811-1.3-.0507-1.9432.1289-.6431.3958-1.257.7809-1.7851.7794-1.0698 2.0205-1.6699 3.2524-1.9079-1.1982.3899-2.3227 1.0576-3.0177 2.0752-.7103 1.007-.9128 2.2947-.6734 3.5027l-.0031-.0107c.1856.6631.4572 1.3169.965 1.7943.5001.485 1.103.8734 1.7565 1.1573z"/><path d="m47.0292 35.4936c-1.1828-.0122-2.4009-.419-3.2953-1.2601-.9067-.8335-1.3761-2.0583-1.4743-3.2587-.0997-1.1941.0982-2.4896.8468-3.4765.7333-.9962 1.8855-1.5687 3.0468-1.7805-1.1322.3315-2.1907.9731-2.8381 1.9294-.6567.9516-.8423 2.1519-.7242 3.3.0706 1.1527.5094 2.284 1.3209 3.1052.8085.8196 1.9438 1.3077 3.1174 1.4412z"/><path d="m48.0694 45.94c-1.281-.2256-2.5804-.614-3.6513-1.4351-1.0907-.8013-1.6952-2.2042-1.6261-3.5441.003-1.3201.4571-2.7445 1.5295-3.604 1.0478-.8703 2.3871-1.1942 3.6742-1.3446-1.2687.2702-2.5543.6846-3.507 1.538-.968.8442-1.3822 2.1427-1.3669 3.4152-.0844 1.2816.4572 2.5326 1.4544 3.343.991.8135 2.2383 1.2893 3.4932 1.6316z"/><path d="m43.7478 19.6531c.3789-.7583.9818-1.4091 1.7121-1.8634.7349-.4482 1.574-.7076 2.4147-.8458 1.6722-.2962 3.3567-.5096 5.0489-.6554 1.6937-.1105 3.392-.1581 5.0887-.1151 1.6876.0599 3.4196.155 5.0166.7552-.8069-.2656-1.6538-.3515-2.4929-.4191-.8392-.0828-1.6845-.1043-2.5283-.1151-1.6891-.0061-3.3782.0814-5.0611.2241-1.686.1075-3.3674.284-5.0366.5419-1.6384.2225-3.2984.9961-4.1621 2.4927z"/><path d="m43.5483 27.1557c.6076-.6831 1.4283-1.1666 2.3058-1.4429.8883-.2901 1.8303-.2471 2.7293-.3085l5.4569-.2701 5.46-.1581c1.8026-.0998 3.7034-.0415 5.3925.6799-1.7351-.5955-3.5776-.5694-5.3879-.4589l-5.4569.2686-5.46.1581c-.9128.0415-1.8226-.0153-2.6878.2441-.873.2195-1.706.6431-2.3519 1.2878z"/><path d="m63.0535 35.5273c-2.6096.1428-5.2222.1919-7.8348.2211-2.6142.0414-5.2253.0399-7.841-.1182h.0107c-1.3516-.0031-2.7246-.4897-3.6758-1.4659-.4771-.4804-.8284-1.0775-1.034-1.716-.2025-.6401-.2746-1.3077-.2838-1.9693.0598 1.32.5047 2.6447 1.4482 3.5549.9251.9178 2.2567 1.3568 3.5393 1.3369h.0107c1.2994.0506 2.6065.0583 3.9105.0675l3.9152.0537 3.9166.0077c1.3056-.0138 2.6111.023 3.9182.0276z"/></g></svg>